<?xml version="1.0" standalone="no"?>
<!DOCTYPE svg PUBLIC "-//W3C//DTD SVG 20010904//EN"
 "http://www.w3.org/TR/2001/REC-SVG-20010904/DTD/svg10.dtd">
<svg version="1.0" xmlns="http://www.w3.org/2000/svg"
 width="1014.000000pt" height="748.000000pt" viewBox="0 0 1014.000000 748.000000"
 preserveAspectRatio="xMidYMid meet">

<g transform="translate(0.000000,748.000000) scale(0.100000,-0.100000)"
fill="#000000" stroke="none">
<path d="M915 7093 c-43 -5 -111 -22 -180 -45 -227 -77 -422 -250 -530 -471
-62 -127 -86 -227 -92 -372 -12 -273 86 -516 283 -706 112 -107 227 -174 389
-225 l90 -29 4190 0 c3497 0 4198 2 4240 14 186 50 312 119 439 240 187 179
286 412 286 672 0 306 -153 595 -405 766 -97 65 -150 90 -310 141 -46 15 -415
16 -4210 18 -2288 0 -4173 -1 -4190 -3z"/>
<path d="M920 4613 c-46 -4 -111 -20 -185 -45 -227 -77 -422 -250 -530 -471
-60 -124 -86 -227 -92 -366 -13 -266 72 -492 256 -685 129 -134 266 -213 466
-267 75 -21 8395 -21 8470 0 186 50 312 119 439 240 187 179 286 412 286 672
0 306 -153 595 -405 766 -97 65 -150 90 -310 141 -46 15 -414 16 -4205 18
-2285 0 -4171 -1 -4190 -3z"/>
<path d="M920 2133 c-77 -8 -213 -50 -295 -91 -315 -157 -515 -481 -515 -831
0 -250 86 -463 259 -645 147 -154 317 -243 526 -276 37 -6 1629 -10 4175 -10
2546 0 4138 4 4175 10 205 32 378 122 521 271 141 148 221 306 255 505 16 97
7 278 -20 378 -57 213 -196 411 -376 533 -97 65 -151 90 -310 141 -46 15 -415
16 -4205 18 -2285 0 -4171 -1 -4190 -3z"/>
</g>
</svg>
